<?xml version="1.0" standalone="no"?><!DOCTYPE svg PUBLIC "-//W3C//DTD SVG 1.1//EN" "http://www.w3.org/Graphics/SVG/1.1/DTD/svg11.dtd"><svg t="1743501928492" class="icon" viewBox="0 0 1024 1024" version="1.1" xmlns="http://www.w3.org/2000/svg" p-id="1487" xmlns:xlink="http://www.w3.org/1999/xlink" width="200" height="200"><path d="M758.99239867 742.44609999c-126.00642841 126.00642841-346.05805871 166.59435765-496.10611768 16.54629868-148.13887066-148.13887066-119.5717567-359.9880623-8.27314934-471.28666966S561.92173875 132.00081579 684.53405461 254.61313165c114.26845584 114.26845584 74.03407999 256.75047225-16.54629868 347.33085092-83.43860018 83.43860018-203.36391027 94.32804461-272.87250686 24.81944802-70.71067812-70.71067812-74.24621202-173.80684682-8.27314934-239.7799095 57.91204538-57.91204538 112.00571414-56.14427843 147.14892116-44.33559518 24.53660531 8.13172798 37.68879144 34.71894296 29.48635278 59.18483758-8.06101731 24.46589463-34.64823228 37.75950212-59.18483758 29.48635278-6.08111832-1.97989899-22.20315293-7.35391052-51.33595232 21.77888886-32.52691193 32.52691193-20.50609665 78.77169542 8.27314934 107.55094142 31.89051583 31.89051583 94.96444071 20.85965005 140.5728281-24.74873735 27.1529004-27.1529004 108.61160159-122.89515857 16.54629868-214.96046148-81.74154391-81.74154391-218.142442-46.45691552-297.69195488 33.09259736s-98.99494937 231.78960287 8.27314934 339.05770158c108.68231227 108.68231227 270.39763313 76.93321779 363.8771496-16.54629868 85.34778849-85.34778849 126.92566722-163.8366412 126.92566722-239.7799095 0-25.88010819 20.93036072-46.81046891 46.73975824-46.73975823 25.88010819 0 46.81046891 20.93036072 46.73975824 46.73975823 0 101.82337649-50.4167135 201.87898603-154.21998898 305.68226151z" fill="#3e63dd" p-id="1488"></path></svg>